<?xml version="1.0" encoding="utf-8"?>
<!-- Generator: Adobe Illustrator 16.0.4, SVG Export Plug-In . SVG Version: 6.00 Build 0)  -->
<!DOCTYPE svg PUBLIC "-//W3C//DTD SVG 1.1//EN" "http://www.w3.org/Graphics/SVG/1.1/DTD/svg11.dtd">
<svg version="1.1" id="Layer_1" xmlns="http://www.w3.org/2000/svg" xmlns:xlink="http://www.w3.org/1999/xlink" x="0px" y="0px"
	 width="512px" height="512px" viewBox="0 0 512 512" enable-background="new 0 0 512 512" xml:space="preserve">
<linearGradient id="SVGID_1_" gradientUnits="userSpaceOnUse" x1="-211.335" y1="319.2344" x2="47.7299" y2="60.1695" gradientTransform="matrix(-0.9875 -0.1578 0.1578 -0.9875 84.1626 387.5215)">
	<stop  offset="0" style="stop-color:#FFFFFF"/>
	<stop  offset="1" style="stop-color:#4A4A4A"/>
</linearGradient>
<path fill="url(#SVGID_1_)" d="M41.708,313.924c9.772-23.743,64.78-132.991,140.792-166.747
	c68.097-30.239,171.635-26.48,171.635-26.48l-1.84,11.512c0,0-96.256,0.302-160.717,44.887c-70.58,48.823-41.796,147.6-41.796,147.6
	"/>
<linearGradient id="SVGID_2_" gradientUnits="userSpaceOnUse" x1="193.7275" y1="417.7002" x2="452.7928" y2="158.635" gradientTransform="matrix(0.9875 0.1578 -0.1578 0.9875 43.6055 -37.1904)">
	<stop  offset="0" style="stop-color:#FFFFFF"/>
	<stop  offset="1" style="stop-color:#4A4A4A"/>
</linearGradient>
<path fill="url(#SVGID_2_)" d="M470.509,197.559c-9.772,23.744-64.78,132.993-140.793,166.749
	c-68.097,30.239-171.635,26.479-171.635,26.479l1.84-11.512c0,0,96.257-0.303,160.717-44.887
	c70.58-48.822,41.797-147.601,41.797-147.601"/>
<path d="M163.947,380.475c-6.381,39.933-44.269,67.079-84.619,60.631c-40.348-6.448-67.887-44.05-61.505-83.982
	c6.383-39.941,44.269-67.088,84.617-60.641C142.79,302.931,170.33,340.533,163.947,380.475z"/>
<path d="M494.176,154.885c-6.382,39.934-44.269,67.08-84.619,60.632c-40.35-6.448-67.888-44.05-61.506-83.983
	c6.383-39.94,44.269-67.088,84.618-60.64S500.559,114.945,494.176,154.885z"/>
</svg>
