<?xml version="1.0" encoding="utf-8"?>
<!-- Generator: Adobe Illustrator 16.0.4, SVG Export Plug-In . SVG Version: 6.00 Build 0)  -->
<!DOCTYPE svg PUBLIC "-//W3C//DTD SVG 1.1//EN" "http://www.w3.org/Graphics/SVG/1.1/DTD/svg11.dtd">
<svg version="1.1" id="Layer_1" xmlns="http://www.w3.org/2000/svg" xmlns:xlink="http://www.w3.org/1999/xlink" x="0px" y="0px"
	 width="512px" height="512px" viewBox="0 0 512 512" enable-background="new 0 0 512 512" xml:space="preserve">
<path d="M215.192,310.252c-0.071-0.795,1.501-0.795,3.073-0.795c-34.59-34.59-72.325-102.198-20.439-138.36
	c73.896-53.457,158.8,25.156,183.956,95.909c11.006,31.445,11.006,67.607-6.289,97.48c-29.873,48.741-89.62,56.603-139.933,40.88
	c-45.596-14.15-83.331-40.88-114.776-78.614c-22.012-26.729-36.162-56.602-47.168-89.619c-3.145-11.006-4.717-22.012-6.29-33.018
	c-1.572-15.723,0-31.445,1.572-48.74c3.145-15.723,9.434-28.301,15.723-42.451c7.861-17.295,20.439-28.301,34.59-40.879
	c12.578-11.006,26.729-17.295,42.451-20.439c154.083-39.307,298.732,89.62,333.322,232.696
	C454.106,144.369,301.596,7.581,150.658,65.755c-12.578,4.717-23.584,12.578-34.59,22.012
	c-12.578,14.15-23.584,28.301-29.873,45.596c-20.44,58.174-4.717,119.493,31.445,171.377c7.861,7.861,12.578,17.295,20.439,25.156
	c26.729,25.156,56.602,47.169,91.192,58.175c9.434,3.145,18.867,4.717,28.301,6.289c11.006,0,22.012,0,33.018,0
	c11.006-1.572,22.012-4.717,31.446-9.434c11.006-4.717,18.867-12.578,26.729-22.013c37.734-48.74,11.006-113.203-29.873-149.365
	c-7.862-6.29-14.151-11.006-25.157-11.006c34.591,34.59,70.753,100.625,20.439,138.36c-48.74,37.735-108.486,6.289-146.221-33.018
	c-17.295-18.867-28.301-40.879-37.734-62.891c-3.145-7.861-4.717-17.295-6.289-26.729c-1.572-11.006,0-22.012,0-33.018
	c1.572-12.578,4.717-25.156,12.578-37.734c29.873-48.741,89.62-56.602,139.932-40.879c45.597,14.151,83.331,40.879,114.776,78.614
	c22.012,26.729,36.162,56.602,47.168,89.62c3.145,11.006,4.717,22.012,6.289,33.018c1.572,15.723,0,31.445-1.572,48.74
	c-3.145,15.724-9.434,28.302-15.723,42.452c-7.861,17.295-20.439,28.301-34.59,40.879c-12.578,11.006-26.729,17.295-42.451,20.439
	c-154.083,39.307-298.732-89.62-333.322-232.696c40.879,139.932,193.39,276.72,344.328,218.546
	c12.578-4.717,23.584-12.578,34.59-22.012c12.578-14.15,23.584-28.301,29.873-45.596c20.439-58.175,4.717-119.493-31.445-171.378
	c-7.861-7.861-12.578-17.295-20.439-25.156c-26.729-25.156-56.602-47.168-91.192-58.174c-9.434-3.145-18.867-4.717-28.301-6.289
	c-11.006,0-22.012,0-33.018,0c-11.006,1.572-22.012,4.717-31.445,9.434c-11.006,4.717-18.867,12.578-26.729,22.012
	c-34.59,44.023-11.006,102.198,20.883,140.163C197.63,302.77,209.455,309.475,215.192,310.252z"/>
</svg>
