<?xml version="1.0" encoding="UTF-8" standalone="no"?>
<!DOCTYPE svg PUBLIC "-//W3C//DTD SVG 1.1//EN"
 "http://www.w3.org/Graphics/SVG/1.1/DTD/svg11.dtd">
<!-- Generated by graphviz version 2.43.0 (0)
 -->
<!-- Title: %3 Pages: 1 -->
<svg width="342pt" height="455pt"
 viewBox="0.00 0.00 342.12 454.81" xmlns="http://www.w3.org/2000/svg" xmlns:xlink="http://www.w3.org/1999/xlink">
<g id="graph0" class="graph" transform="scale(1 1) rotate(0) translate(4 450.81)">
<title>%3</title>
<polygon fill="white" stroke="transparent" points="-4,4 -4,-450.81 338.12,-450.81 338.12,4 -4,4"/>
<g id="clust1" class="cluster">
<title>cluster256</title>
<path fill="none" stroke="black" d="M92.12,-8C92.12,-8 286.12,-8 286.12,-8 292.12,-8 298.12,-14 298.12,-20 298.12,-20 298.12,-220.91 298.12,-220.91 298.12,-226.91 292.12,-232.91 286.12,-232.91 286.12,-232.91 92.12,-232.91 92.12,-232.91 86.12,-232.91 80.12,-226.91 80.12,-220.91 80.12,-220.91 80.12,-20 80.12,-20 80.12,-14 86.12,-8 92.12,-8"/>
<text text-anchor="middle" x="276.12" y="-15.8" font-family="Times,serif" font-size="14.00">256</text>
</g>
<!-- std_r -->
<g id="node1" class="node">
<title>std_r</title>
<polygon fill="none" stroke="black" points="334.12,-324.88 220.12,-324.88 220.12,-271.88 334.12,-271.88 334.12,-324.88"/>
<text text-anchor="middle" x="277.12" y="-309.68" font-family="Times,serif" font-size="14.00">std_r</text>
<text text-anchor="middle" x="277.12" y="-294.68" font-family="Times,serif" font-size="14.00">~</text>
<text text-anchor="middle" x="277.12" y="-279.68" font-family="Times,serif" font-size="14.00">Deterministic</text>
</g>
<!-- r -->
<g id="node5" class="node">
<title>r</title>
<ellipse fill="none" stroke="black" cx="189.12" cy="-187.43" rx="101.23" ry="37.45"/>
<text text-anchor="middle" x="189.12" y="-198.73" font-family="Times,serif" font-size="14.00">r</text>
<text text-anchor="middle" x="189.12" y="-183.73" font-family="Times,serif" font-size="14.00">~</text>
<text text-anchor="middle" x="189.12" y="-168.73" font-family="Times,serif" font-size="14.00">TruncatedNormal</text>
</g>
<!-- std_r&#45;&gt;r -->
<g id="edge2" class="edge">
<title>std_r&#45;&gt;r</title>
<path fill="none" stroke="black" d="M256.48,-271.84C246.8,-259.85 234.99,-245.23 223.98,-231.6"/>
<polygon fill="black" stroke="black" points="226.62,-229.29 217.61,-223.71 221.17,-233.69 226.62,-229.29"/>
</g>
<!-- mu_r -->
<g id="node2" class="node">
<title>mu_r</title>
<ellipse fill="none" stroke="black" cx="101.12" cy="-298.38" rx="101.23" ry="37.45"/>
<text text-anchor="middle" x="101.12" y="-309.68" font-family="Times,serif" font-size="14.00">mu_r</text>
<text text-anchor="middle" x="101.12" y="-294.68" font-family="Times,serif" font-size="14.00">~</text>
<text text-anchor="middle" x="101.12" y="-279.68" font-family="Times,serif" font-size="14.00">TruncatedNormal</text>
</g>
<!-- mu_r&#45;&gt;r -->
<g id="edge3" class="edge">
<title>mu_r&#45;&gt;r</title>
<path fill="none" stroke="black" d="M129.44,-262.31C137.37,-252.49 146.08,-241.71 154.34,-231.49"/>
<polygon fill="black" stroke="black" points="157.28,-233.42 160.84,-223.44 151.84,-229.02 157.28,-233.42"/>
</g>
<!-- ln_std_r -->
<g id="node3" class="node">
<title>ln_std_r</title>
<ellipse fill="none" stroke="black" cx="277.12" cy="-409.34" rx="53.98" ry="37.45"/>
<text text-anchor="middle" x="277.12" y="-420.64" font-family="Times,serif" font-size="14.00">ln_std_r</text>
<text text-anchor="middle" x="277.12" y="-405.64" font-family="Times,serif" font-size="14.00">~</text>
<text text-anchor="middle" x="277.12" y="-390.64" font-family="Times,serif" font-size="14.00">Uniform</text>
</g>
<!-- ln_std_r&#45;&gt;std_r -->
<g id="edge1" class="edge">
<title>ln_std_r&#45;&gt;std_r</title>
<path fill="none" stroke="black" d="M277.12,-371.75C277.12,-360.02 277.12,-347.03 277.12,-335.34"/>
<polygon fill="black" stroke="black" points="280.62,-335.04 277.12,-325.04 273.62,-335.04 280.62,-335.04"/>
</g>
<!-- plx -->
<g id="node4" class="node">
<title>plx</title>
<ellipse fill="lightgrey" stroke="black" cx="189.12" cy="-76.48" rx="49.49" ry="37.45"/>
<text text-anchor="middle" x="189.12" y="-87.78" font-family="Times,serif" font-size="14.00">plx</text>
<text text-anchor="middle" x="189.12" y="-72.78" font-family="Times,serif" font-size="14.00">~</text>
<text text-anchor="middle" x="189.12" y="-57.78" font-family="Times,serif" font-size="14.00">Normal</text>
</g>
<!-- r&#45;&gt;plx -->
<g id="edge4" class="edge">
<title>r&#45;&gt;plx</title>
<path fill="none" stroke="black" d="M189.12,-149.85C189.12,-141.67 189.12,-132.89 189.12,-124.37"/>
<polygon fill="black" stroke="black" points="192.62,-124.15 189.12,-114.15 185.62,-124.15 192.62,-124.15"/>
</g>
</g>
</svg>
